<svg xmlns="http://www.w3.org/2000/svg" version="1.1" xmlns:xlink="http://www.w3.org/1999/xlink" xmlns:svgjs="http://svgjs.com/svgjs" width="1440" height="560" preserveAspectRatio="none" viewBox="0 0 1440 560"><g mask="url(&quot;#SvgjsMask1017&quot;)" fill="none"><path d="M1393 194L1392 -97" stroke-width="10" stroke="url(#SvgjsLinearGradient1018)" stroke-linecap="round" class="Down"></path><path d="M1296 291L1295 -54" stroke-width="6" stroke="url(#SvgjsLinearGradient1018)" stroke-linecap="round" class="Down"></path><path d="M157 413L156 107" stroke-width="6" stroke="url(#SvgjsLinearGradient1019)" stroke-linecap="round" class="Up"></path><path d="M394 86L393 481" stroke-width="6" stroke="url(#SvgjsLinearGradient1018)" stroke-linecap="round" class="Down"></path><path d="M1 227L0 585" stroke-width="8" stroke="url(#SvgjsLinearGradient1019)" stroke-linecap="round" class="Up"></path><path d="M1153 333L1152 519" stroke-width="6" stroke="url(#SvgjsLinearGradient1019)" stroke-linecap="round" class="Up"></path><path d="M1354 176L1353 -5" stroke-width="8" stroke="url(#SvgjsLinearGradient1018)" stroke-linecap="round" class="Down"></path><path d="M144 542L143 764" stroke-width="8" stroke="url(#SvgjsLinearGradient1018)" stroke-linecap="round" class="Down"></path><path d="M480 51L479 368" stroke-width="6" stroke="url(#SvgjsLinearGradient1019)" stroke-linecap="round" class="Up"></path><path d="M937 428L936 602" stroke-width="10" stroke="url(#SvgjsLinearGradient1018)" stroke-linecap="round" class="Down"></path><path d="M1011 195L1010 458" stroke-width="10" stroke="url(#SvgjsLinearGradient1019)" stroke-linecap="round" class="Up"></path><path d="M631 122L630 -35" stroke-width="6" stroke="url(#SvgjsLinearGradient1018)" stroke-linecap="round" class="Down"></path><path d="M921 358L920 610" stroke-width="6" stroke="url(#SvgjsLinearGradient1018)" stroke-linecap="round" class="Down"></path><path d="M579 481L578 267" stroke-width="6" stroke="url(#SvgjsLinearGradient1019)" stroke-linecap="round" class="Up"></path><path d="M1311 207L1310 -61" stroke-width="10" stroke="url(#SvgjsLinearGradient1019)" stroke-linecap="round" class="Up"></path><path d="M1103 528L1102 724" stroke-width="10" stroke="url(#SvgjsLinearGradient1019)" stroke-linecap="round" class="Up"></path><path d="M364 161L363 -220" stroke-width="8" stroke="url(#SvgjsLinearGradient1019)" stroke-linecap="round" class="Up"></path><path d="M560 103L559 385" stroke-width="10" stroke="url(#SvgjsLinearGradient1019)" stroke-linecap="round" class="Up"></path><path d="M33 478L32 706" stroke-width="8" stroke="url(#SvgjsLinearGradient1019)" stroke-linecap="round" class="Up"></path><path d="M1393 118L1392 -146" stroke-width="8" stroke="url(#SvgjsLinearGradient1018)" stroke-linecap="round" class="Down"></path><path d="M1281 133L1280 -27" stroke-width="8" stroke="url(#SvgjsLinearGradient1019)" stroke-linecap="round" class="Up"></path><path d="M831 183L830 599" stroke-width="8" stroke="url(#SvgjsLinearGradient1018)" stroke-linecap="round" class="Down"></path><path d="M757 186L756 345" stroke-width="6" stroke="url(#SvgjsLinearGradient1019)" stroke-linecap="round" class="Up"></path><path d="M1176 151L1175 537" stroke-width="10" stroke="url(#SvgjsLinearGradient1019)" stroke-linecap="round" class="Up"></path><path d="M229 67L228 -78" stroke-width="8" stroke="url(#SvgjsLinearGradient1018)" stroke-linecap="round" class="Down"></path><path d="M1078 313L1077 583" stroke-width="8" stroke="url(#SvgjsLinearGradient1018)" stroke-linecap="round" class="Down"></path><path d="M222 299L221 133" stroke-width="10" stroke="url(#SvgjsLinearGradient1018)" stroke-linecap="round" class="Down"></path><path d="M415 38L414 -378" stroke-width="8" stroke="url(#SvgjsLinearGradient1019)" stroke-linecap="round" class="Up"></path><path d="M1385 25L1384 379" stroke-width="6" stroke="url(#SvgjsLinearGradient1018)" stroke-linecap="round" class="Down"></path><path d="M287 416L286 799" stroke-width="10" stroke="url(#SvgjsLinearGradient1018)" stroke-linecap="round" class="Down"></path><path d="M807 25L806 376" stroke-width="8" stroke="url(#SvgjsLinearGradient1018)" stroke-linecap="round" class="Down"></path><path d="M1083 270L1082 432" stroke-width="10" stroke="url(#SvgjsLinearGradient1019)" stroke-linecap="round" class="Up"></path><path d="M529 28L528 413" stroke-width="6" stroke="url(#SvgjsLinearGradient1019)" stroke-linecap="round" class="Up"></path><path d="M294 158L293 537" stroke-width="8" stroke="url(#SvgjsLinearGradient1019)" stroke-linecap="round" class="Up"></path><path d="M78 541L77 915" stroke-width="8" stroke="url(#SvgjsLinearGradient1018)" stroke-linecap="round" class="Down"></path><path d="M795 304L794 588" stroke-width="8" stroke="url(#SvgjsLinearGradient1018)" stroke-linecap="round" class="Down"></path></g><defs><mask id="SvgjsMask1017"><rect width="1440" height="560" fill="#ffffff"></rect></mask><linearGradient x1="0%" y1="0%" x2="0%" y2="100%" id="SvgjsLinearGradient1018"><stop stop-color="rgba(25, 238, 114, 0)" offset="0"></stop><stop stop-color="rgba(25, 238, 114, 1)" offset="1"></stop></linearGradient><linearGradient x1="0%" y1="100%" x2="0%" y2="0%" id="SvgjsLinearGradient1019"><stop stop-color="rgba(25, 238, 114, 0)" offset="0"></stop><stop stop-color="rgba(25, 238, 114, 1)" offset="1"></stop></linearGradient></defs></svg>